<?xml version="1.0" standalone="no"?>
<!DOCTYPE svg PUBLIC "-//W3C//DTD SVG 20010904//EN"
 "http://www.w3.org/TR/2001/REC-SVG-20010904/DTD/svg10.dtd">
<svg version="1.0" xmlns="http://www.w3.org/2000/svg"
 width="2048.000000pt" height="2048.000000pt" viewBox="0 0 2048.000000 2048.000000"
 preserveAspectRatio="xMidYMid meet">

<g transform="translate(0.000000,2048.000000) scale(0.100000,-0.100000)"
fill="#000000" stroke="none">
<path d="M10160 19079 c-14 -6 -36 -8 -49 -6 -34 7 -235 -20 -401 -53 -58 -12
-129 -25 -159 -30 -29 -5 -58 -13 -65 -18 -6 -5 -33 -12 -59 -16 -27 -3 -58
-13 -70 -21 -12 -8 -33 -15 -47 -15 -14 0 -37 -6 -52 -14 -14 -8 -43 -19 -64
-26 -21 -7 -52 -21 -69 -31 -16 -11 -39 -19 -49 -19 -16 0 -101 -38 -156 -69
-8 -4 -58 -30 -110 -56 -100 -50 -181 -101 -215 -135 -12 -11 -25 -20 -31 -20
-6 0 -28 -15 -50 -33 -21 -19 -44 -36 -50 -38 -19 -7 -180 -148 -267 -235 -86
-85 -287 -326 -287 -343 0 -5 -6 -16 -13 -23 -23 -22 -87 -117 -87 -128 0 -5
-4 -10 -8 -10 -8 0 -18 -16 -85 -142 -37 -69 -28 -67 -232 -28 -76 15 -319 40
-420 42 -122 4 -245 -12 -489 -63 -32 -7 -88 -28 -124 -46 -36 -18 -74 -33
-83 -33 -10 0 -24 -7 -32 -15 -8 -7 -28 -17 -43 -21 -16 -4 -56 -23 -89 -43
-34 -20 -72 -43 -87 -51 -62 -37 -139 -92 -189 -137 -30 -27 -67 -59 -82 -70
-33 -26 -171 -176 -210 -230 -15 -21 -45 -61 -66 -89 -21 -27 -42 -60 -45 -72
-4 -12 -11 -22 -16 -22 -4 0 -18 -21 -31 -47 -12 -27 -33 -62 -46 -79 -12 -17
-26 -46 -29 -65 -4 -19 -13 -45 -20 -59 -18 -33 -64 -178 -64 -199 0 -9 -5
-22 -10 -27 -6 -6 -13 -34 -17 -62 -3 -29 -11 -56 -17 -61 -6 -5 -42 -11 -81
-14 -106 -8 -257 -32 -284 -46 -13 -7 -31 -11 -41 -8 -17 4 -75 -8 -145 -32
-16 -5 -57 -14 -91 -20 -33 -6 -78 -20 -100 -30 -22 -11 -52 -23 -67 -26 -14
-4 -31 -13 -38 -21 -6 -8 -18 -14 -26 -14 -12 0 -56 -21 -138 -68 -16 -9 -32
-19 -35 -22 -3 -3 -36 -21 -75 -40 -82 -40 -273 -182 -379 -280 -116 -107
-266 -279 -266 -305 0 -8 -13 -23 -30 -35 -16 -12 -30 -27 -30 -33 0 -7 -18
-36 -40 -65 -22 -29 -40 -57 -40 -63 0 -6 -11 -24 -25 -41 -14 -16 -25 -36
-25 -43 0 -8 -11 -31 -25 -51 -14 -20 -25 -43 -25 -50 0 -7 -13 -39 -30 -71
-16 -31 -30 -64 -30 -71 0 -8 -15 -46 -34 -85 -18 -40 -36 -88 -40 -108 -4
-21 -14 -51 -22 -68 -9 -17 -14 -46 -13 -64 2 -17 -3 -42 -9 -54 -7 -12 -16
-53 -22 -91 -5 -38 -14 -80 -18 -93 -5 -13 -10 -67 -11 -119 -1 -52 -5 -131
-9 -175 -4 -44 -4 -120 1 -170 4 -49 9 -113 10 -141 1 -29 7 -58 13 -65 6 -8
14 -42 17 -77 4 -34 14 -76 22 -92 8 -16 15 -38 15 -49 0 -11 8 -40 19 -63 42
-95 51 -119 51 -133 0 -15 -113 -75 -140 -75 -9 0 -37 -14 -63 -30 -26 -17
-62 -37 -80 -45 -71 -33 -287 -173 -323 -209 -11 -12 -36 -32 -54 -46 -139
-104 -404 -363 -440 -430 -11 -19 -30 -45 -43 -57 -14 -13 -32 -38 -41 -57 -8
-18 -22 -39 -31 -46 -8 -7 -15 -17 -15 -23 0 -5 -25 -47 -55 -92 -30 -45 -55
-84 -55 -87 0 -3 -16 -29 -35 -58 -19 -29 -35 -60 -35 -70 0 -9 -11 -34 -25
-54 -14 -21 -23 -41 -20 -45 2 -5 -14 -43 -36 -85 -25 -47 -38 -84 -34 -95 3
-11 -3 -35 -15 -55 -11 -20 -22 -55 -26 -79 -3 -23 -11 -58 -18 -77 -7 -19
-11 -41 -8 -49 2 -7 -1 -17 -8 -21 -7 -4 -16 -46 -21 -96 -5 -49 -13 -98 -18
-109 -22 -51 -30 -108 -29 -207 1 -69 -2 -111 -10 -121 -11 -13 -11 -53 3
-322 2 -44 7 -96 10 -115 4 -19 8 -62 10 -95 3 -33 7 -71 11 -85 4 -14 8 -36
10 -50 9 -77 16 -110 25 -115 5 -4 9 -20 9 -37 0 -17 12 -67 26 -112 14 -44
33 -103 41 -131 9 -27 31 -82 49 -120 19 -39 34 -74 34 -79 0 -21 81 -183 122
-243 15 -23 28 -48 28 -56 0 -7 12 -24 26 -38 14 -13 34 -40 44 -59 50 -97
366 -427 485 -506 28 -18 77 -52 110 -75 33 -23 83 -55 110 -71 28 -16 57 -33
65 -38 29 -19 166 -79 273 -121 l109 -42 -7 -35 c-6 -35 -9 -43 -39 -99 -9
-17 -16 -40 -16 -51 0 -11 -9 -41 -19 -68 -21 -54 -40 -151 -46 -229 -2 -27
-7 -70 -10 -95 -12 -77 -14 -253 -3 -305 5 -27 12 -83 14 -124 3 -41 9 -82 15
-92 5 -10 13 -38 18 -61 19 -93 44 -174 62 -200 11 -14 17 -33 13 -41 -3 -8
17 -59 44 -113 27 -55 52 -110 56 -124 3 -14 16 -40 28 -59 13 -19 28 -42 33
-50 131 -207 348 -446 550 -604 51 -40 210 -147 250 -169 128 -68 149 -78 160
-78 7 0 38 -13 68 -29 30 -16 72 -34 93 -41 22 -7 43 -16 48 -21 6 -5 24 -9
40 -9 17 -1 42 -7 56 -15 14 -8 37 -14 51 -15 15 0 42 -6 60 -14 31 -12 125
-31 141 -28 3 1 37 -6 75 -15 105 -24 357 -35 488 -21 143 16 171 20 190 28
11 5 45 11 75 14 72 6 108 13 210 43 47 14 99 29 115 33 17 4 44 15 60 24 17
9 37 16 46 16 48 0 379 194 379 222 0 5 10 8 23 8 14 0 30 -12 44 -34 20 -31
123 -126 137 -126 3 0 25 -18 47 -40 23 -22 46 -40 51 -40 6 0 25 -12 43 -28
84 -69 214 -134 380 -190 168 -56 183 -59 380 -70 161 -9 303 1 425 29 47 12
106 24 133 28 26 4 53 13 59 19 7 7 23 12 37 12 15 0 53 18 85 40 87 57 104
33 71 -103 -8 -34 -19 -102 -25 -152 -14 -114 -36 -239 -67 -375 -8 -36 -16
-78 -18 -95 -4 -33 -19 -114 -35 -185 -6 -25 -15 -70 -20 -100 -5 -30 -17 -80
-26 -110 -9 -30 -18 -64 -20 -75 -3 -17 -45 -191 -59 -248 -2 -10 -12 -35 -21
-56 -15 -36 -21 -39 -118 -70 -55 -18 -114 -39 -131 -46 -16 -7 -50 -19 -75
-26 -25 -7 -54 -19 -65 -26 -11 -7 -28 -13 -38 -13 -10 0 -31 -7 -45 -15 -15
-7 -62 -26 -105 -40 -83 -27 -283 -122 -382 -179 -33 -19 -67 -38 -75 -42 -16
-8 -96 -62 -117 -79 -6 -5 -28 -21 -48 -35 -104 -72 -227 -186 -300 -276 -21
-27 -56 -67 -77 -88 -21 -22 -38 -47 -38 -56 0 -9 -13 -34 -29 -56 -16 -22
-33 -53 -37 -69 -4 -17 -10 -34 -14 -40 -39 -50 -57 -324 -26 -397 9 -21 16
-47 16 -58 0 -58 141 -238 249 -318 78 -58 197 -122 226 -122 9 0 26 -5 38
-12 42 -22 202 -48 302 -48 138 0 314 16 377 34 29 8 89 21 133 29 89 16 217
47 345 84 47 14 103 29 125 33 109 25 249 66 327 98 47 19 64 12 71 -30 37
-233 180 -407 402 -490 90 -34 97 -36 180 -47 90 -13 327 12 359 38 6 5 31 14
56 21 39 10 297 131 325 153 6 4 28 19 50 34 61 41 129 87 140 95 28 21 105
76 145 103 24 17 52 37 61 45 10 8 43 33 74 55 31 22 70 51 87 64 l31 25 41
-24 c22 -13 64 -40 91 -60 28 -20 82 -58 120 -85 39 -27 91 -63 117 -82 26
-18 51 -33 55 -33 3 0 14 -6 22 -14 9 -8 45 -29 81 -48 36 -19 83 -45 105 -59
110 -70 275 -142 365 -159 25 -5 70 -17 100 -26 69 -21 294 -26 360 -8 25 7
63 15 84 19 137 23 355 202 421 344 15 31 30 63 35 72 4 9 11 36 15 61 10 69
16 74 67 59 24 -8 59 -18 78 -24 19 -5 53 -16 75 -23 79 -27 271 -76 340 -87
39 -7 75 -15 81 -19 6 -4 31 -9 55 -12 24 -2 56 -9 71 -14 26 -11 217 -36 378
-51 41 -4 83 -4 93 1 10 5 46 11 80 14 128 10 152 16 214 50 23 13 60 28 82
34 22 6 47 17 55 25 8 8 21 15 30 15 8 0 18 5 21 10 4 6 23 19 43 29 53 28
186 154 206 196 9 19 20 35 24 35 17 0 81 149 91 210 20 126 21 170 10 237 -6
37 -11 75 -11 83 0 8 -13 56 -30 105 -31 95 -106 224 -167 288 -56 59 -253
232 -281 247 -14 7 -44 27 -66 45 -23 17 -61 41 -85 52 -24 12 -85 42 -136 67
-50 25 -98 46 -106 46 -8 0 -41 13 -73 30 -32 16 -68 30 -79 30 -11 0 -38 11
-60 25 -22 13 -52 25 -67 25 -15 0 -29 4 -33 9 -3 6 -27 13 -53 17 -26 3 -55
10 -64 15 -9 5 -43 16 -75 25 -32 9 -80 23 -108 31 -94 27 -270 74 -300 80
-42 8 -52 18 -59 64 -3 22 -10 48 -15 57 -15 29 -61 181 -61 199 0 10 -11 54
-24 98 -14 44 -30 107 -36 140 -12 56 -17 90 -39 218 -5 28 -14 77 -21 107 -7
30 -14 80 -15 110 -2 30 -10 89 -19 130 -8 41 -15 96 -15 121 -1 26 -8 86 -16
134 -10 58 -12 92 -6 98 7 7 30 0 68 -18 105 -49 117 -54 216 -85 54 -17 103
-29 110 -27 7 2 24 -2 39 -9 43 -22 356 -47 478 -39 58 4 134 9 169 11 35 2
85 10 110 18 25 7 64 18 86 24 169 45 215 60 215 73 0 5 7 9 16 9 33 0 260
112 349 172 196 132 409 352 491 505 16 32 37 59 46 61 9 2 38 -10 64 -26 27
-16 67 -35 89 -42 22 -7 48 -16 57 -21 34 -17 138 -49 159 -49 13 0 30 -6 38
-13 21 -18 105 -35 206 -43 44 -4 85 -11 91 -16 12 -9 197 -20 319 -19 84 1
215 18 271 36 23 8 60 14 83 13 44 0 167 26 216 47 70 29 87 35 106 35 11 0
39 9 61 20 23 11 46 20 50 20 5 0 36 14 70 30 33 17 66 30 74 30 14 0 24 4 77
32 12 6 45 23 72 37 48 24 197 116 242 150 233 175 454 385 578 548 171 225
174 229 245 358 48 88 58 109 70 150 7 22 27 65 45 96 36 63 57 119 61 166 1
18 11 44 22 58 11 14 23 45 27 68 3 23 15 80 27 125 11 46 17 95 13 109 -4 17
0 32 11 45 15 16 18 44 21 192 1 95 -2 215 -7 267 -16 161 -29 253 -40 289 -6
19 -13 53 -16 75 -3 22 -9 44 -13 50 -5 5 -11 21 -14 35 -8 35 -43 133 -56
156 -5 10 -22 45 -37 78 -30 65 -93 164 -118 185 -26 22 -20 57 12 70 16 7 44
27 63 45 19 18 39 35 46 37 46 16 419 394 453 460 7 13 30 45 51 70 22 26 39
52 39 58 0 6 8 19 18 29 24 24 132 217 132 236 0 9 14 35 30 58 17 22 30 48
30 55 0 16 20 65 50 123 24 46 44 119 41 148 -2 13 6 34 17 45 26 31 40 72 45
143 3 34 12 77 20 95 16 35 36 197 44 349 8 157 4 454 -7 520 -6 36 -12 81
-15 100 -3 19 -9 67 -14 107 -5 39 -14 80 -19 90 -5 10 -13 40 -17 68 -4 27
-13 62 -21 77 -8 15 -14 38 -14 52 0 32 -39 156 -56 176 -6 8 -15 31 -19 50
-4 19 -13 45 -21 57 -8 12 -14 30 -14 39 0 9 -9 27 -20 41 -11 14 -20 36 -20
49 0 12 -11 36 -25 52 -14 17 -25 36 -25 43 0 15 -75 144 -101 174 -10 11 -20
31 -24 45 -3 14 -28 52 -56 84 -27 32 -49 61 -49 66 0 22 -237 268 -330 343
-36 29 -74 59 -85 68 -86 71 -139 111 -176 134 -24 15 -53 36 -64 46 -11 10
-45 31 -75 47 -30 15 -68 36 -85 44 -16 9 -54 29 -84 43 -30 15 -62 31 -70 36
-51 27 -151 69 -166 69 -9 0 -23 7 -31 15 -9 8 -27 15 -40 15 -14 0 -41 8 -62
18 -20 10 -68 24 -107 31 -38 7 -87 19 -108 27 -20 8 -57 14 -81 14 -49 0 -62
15 -46 53 20 48 49 227 49 312 1 50 5 133 10 185 4 52 7 100 5 105 -2 6 -6 51
-9 100 -9 176 -13 216 -23 228 -5 7 -18 53 -27 102 -9 50 -23 100 -31 112 -8
12 -14 34 -14 48 0 15 -15 52 -34 84 -18 31 -36 73 -40 93 -3 19 -15 43 -26
53 -11 10 -20 25 -20 34 0 9 -16 38 -35 65 -19 27 -35 55 -35 61 0 6 -16 30
-35 52 -19 23 -35 44 -35 47 0 25 -231 273 -337 362 -27 23 -74 57 -104 75
-30 18 -67 43 -82 56 -16 13 -35 23 -42 23 -7 0 -27 11 -43 25 -44 37 -205
115 -237 115 -15 0 -42 9 -59 19 -17 11 -57 24 -89 30 -31 6 -66 15 -77 21
-18 10 -81 21 -195 35 -111 14 -303 16 -353 4 -64 -15 -85 -6 -90 37 -2 16
-10 36 -18 45 -8 9 -12 24 -8 33 7 17 1 42 -31 141 -9 28 -18 66 -21 85 -3 19
-16 55 -30 79 -13 24 -24 52 -24 62 0 10 -6 33 -14 51 -8 18 -17 45 -20 60 -3
14 -17 40 -31 56 -14 17 -25 37 -25 47 0 9 -15 37 -32 63 -18 26 -37 54 -43
63 -48 80 -251 305 -328 364 -176 137 -332 235 -374 235 -11 0 -30 11 -43 25
-13 14 -48 34 -79 45 -31 11 -65 25 -76 30 -11 6 -34 12 -51 14 -17 2 -42 10
-55 20 -13 9 -36 16 -52 16 -15 0 -41 7 -57 15 -18 9 -40 13 -55 9 -14 -3 -31
-1 -39 5 -8 7 -40 13 -72 15 -33 3 -100 11 -149 19 -145 23 -380 5 -565 -43
-25 -7 -67 -18 -95 -25 -57 -15 -172 -53 -197 -66 -10 -5 -26 -13 -35 -18 -10
-5 -29 -14 -43 -20 -14 -6 -33 -17 -43 -23 -15 -11 -24 -6 -67 41 -28 30 -50
60 -50 67 0 7 -10 21 -23 31 -12 10 -36 39 -52 65 -17 27 -33 48 -36 48 -3 0
-61 54 -130 121 -134 131 -294 256 -386 304 -32 17 -72 40 -89 53 -17 12 -60
34 -95 48 -35 14 -88 36 -117 50 -29 13 -57 24 -63 24 -5 0 -21 7 -35 16 -14
9 -35 18 -48 19 -27 3 -61 12 -91 24 -11 5 -45 15 -75 24 -30 9 -77 23 -105
32 -77 23 -233 42 -415 49 -47 2 -96 6 -110 10 -14 3 -36 1 -50 -5z m250 -658
c205 -28 261 -41 355 -81 101 -43 154 -64 200 -80 136 -48 349 -195 481 -332
83 -86 204 -233 204 -248 0 -5 6 -15 13 -22 17 -19 50 -68 67 -101 8 -16 39
-54 70 -85 75 -77 128 -96 223 -77 38 7 78 22 90 32 12 11 47 31 77 45 30 15
89 42 130 62 41 20 82 36 90 36 18 0 87 24 96 33 4 4 23 7 43 7 20 0 56 8 81
17 68 26 522 25 630 -1 41 -9 87 -24 102 -32 14 -8 34 -14 43 -14 24 0 235
-106 313 -156 128 -85 305 -268 372 -386 44 -77 84 -156 95 -187 7 -20 21 -56
33 -81 35 -80 83 -298 81 -370 -5 -195 55 -333 176 -405 43 -24 52 -26 133
-22 48 3 110 10 137 15 130 27 269 42 341 38 184 -10 317 -36 409 -80 39 -18
81 -37 95 -41 14 -4 39 -18 56 -31 17 -13 35 -24 41 -24 5 0 29 -15 53 -32 24
-18 60 -44 80 -58 38 -26 128 -120 191 -200 47 -60 149 -208 149 -218 0 -4 18
-42 40 -85 22 -43 43 -97 46 -120 4 -23 11 -50 16 -59 8 -17 33 -151 39 -213
8 -73 0 -465 -10 -510 -6 -27 -18 -88 -27 -135 -9 -47 -25 -102 -35 -123 -24
-52 -36 -195 -19 -239 35 -96 78 -154 151 -209 51 -39 164 -79 221 -79 18 0
67 -7 108 -16 41 -8 91 -17 110 -18 44 -4 208 -47 286 -75 110 -39 209 -87
294 -142 47 -30 114 -72 150 -93 135 -79 342 -282 464 -455 61 -86 186 -293
186 -308 0 -7 13 -36 29 -65 15 -29 31 -64 35 -78 5 -14 21 -61 36 -105 103
-293 142 -579 118 -862 -4 -45 -9 -110 -12 -145 -2 -35 -11 -89 -20 -121 -9
-31 -18 -77 -20 -102 -3 -24 -13 -70 -24 -102 -11 -32 -26 -78 -33 -103 -7
-25 -19 -54 -26 -65 -7 -11 -13 -28 -13 -38 0 -20 -60 -140 -72 -145 -5 -2 -8
-12 -8 -21 0 -16 -27 -60 -154 -246 -59 -87 -162 -197 -291 -312 -87 -77 -114
-98 -235 -180 -139 -94 -220 -191 -220 -262 0 -17 -4 -33 -10 -36 -13 -8 -10
-85 5 -110 6 -11 15 -34 18 -51 3 -17 21 -53 39 -79 67 -96 108 -162 147 -240
48 -95 101 -241 101 -277 0 -13 7 -47 16 -74 8 -27 17 -83 20 -124 3 -41 9
-102 14 -135 13 -82 -15 -389 -39 -434 -6 -11 -11 -41 -11 -66 0 -29 -7 -57
-18 -73 -10 -15 -25 -49 -32 -77 -8 -27 -22 -65 -32 -83 -10 -18 -18 -38 -18
-44 0 -6 -19 -43 -42 -82 -22 -39 -51 -89 -62 -111 -12 -22 -34 -59 -49 -82
-15 -24 -27 -46 -27 -50 0 -4 -17 -27 -38 -52 -20 -25 -51 -66 -67 -90 -35
-52 -194 -216 -284 -292 -55 -47 -81 -66 -165 -122 -10 -6 -28 -19 -40 -28
-11 -9 -46 -29 -76 -45 -30 -16 -70 -39 -88 -51 -18 -12 -47 -25 -65 -28 -18
-4 -52 -17 -77 -30 -56 -28 -236 -85 -270 -85 -14 0 -44 -7 -68 -15 -91 -32
-328 -49 -457 -34 -158 19 -230 31 -241 40 -6 5 -34 13 -62 19 -29 5 -72 19
-96 30 -25 11 -51 20 -58 20 -13 0 -96 41 -269 132 -84 44 -160 68 -218 68
-16 0 -64 -12 -107 -26 -91 -30 -152 -80 -185 -154 -11 -25 -25 -53 -30 -62
-5 -10 -9 -31 -9 -46 0 -16 -9 -37 -19 -46 -11 -10 -22 -29 -26 -43 -12 -50
-100 -169 -189 -258 -93 -92 -108 -105 -161 -139 -48 -32 -217 -116 -231 -116
-7 0 -32 -9 -54 -21 -93 -49 -311 -83 -480 -76 -100 4 -232 23 -265 37 -11 5
-56 19 -100 31 -43 11 -102 32 -130 44 -27 13 -68 29 -90 36 -47 14 -211 111
-242 142 -21 22 -27 90 -42 447 -7 155 -12 555 -8 572 4 13 23 41 44 64 21 22
63 71 93 108 30 37 89 104 131 149 42 45 109 119 150 165 93 105 192 213 339
372 63 68 150 163 194 210 43 47 93 99 111 116 18 18 39 41 46 52 8 10 151
158 318 328 l303 308 57 12 c31 7 82 20 114 28 32 9 69 16 83 16 14 0 34 5 45
11 11 5 60 17 109 25 49 7 104 20 122 28 37 16 144 42 233 58 33 5 71 16 85
23 14 7 66 23 115 35 50 12 102 29 117 36 15 8 39 14 53 14 14 0 52 11 85 25
33 14 67 25 76 25 9 0 30 6 47 14 18 7 48 19 67 26 201 73 410 192 547 312 77
68 181 190 206 241 71 150 90 227 91 377 2 123 1 127 -37 225 -21 55 -47 109
-57 120 -10 11 -25 34 -33 50 -19 38 -116 132 -183 178 -132 91 -298 131 -508
121 -71 -3 -152 -10 -180 -15 -28 -5 -79 -14 -114 -19 -35 -6 -109 -22 -165
-36 -56 -14 -129 -33 -162 -41 -33 -8 -64 -18 -70 -22 -5 -5 -26 -12 -45 -16
-81 -17 -109 -25 -174 -48 -39 -14 -74 -24 -78 -21 -11 7 -10 30 1 68 22 75
57 225 77 336 19 99 21 359 4 435 -6 28 -15 68 -19 91 -4 22 -17 57 -29 76
-12 19 -22 41 -22 48 0 27 -93 140 -152 187 -116 90 -159 112 -303 152 -80 23
-238 16 -380 -17 -98 -22 -256 -123 -350 -223 -84 -90 -186 -233 -201 -283 -4
-12 -17 -35 -30 -52 -13 -17 -24 -34 -24 -39 0 -4 -16 -41 -35 -81 -19 -40
-35 -76 -35 -81 0 -4 -9 -31 -20 -60 -42 -109 -75 -206 -125 -378 -10 -33 -24
-77 -31 -98 -8 -20 -14 -48 -14 -62 0 -24 -8 -63 -35 -175 -8 -30 -16 -71 -19
-90 -3 -19 -13 -64 -21 -100 -22 -87 -33 -156 -46 -275 l-11 -100 -47 -45
c-26 -25 -63 -56 -82 -69 -47 -34 -206 -169 -314 -267 -49 -45 -108 -97 -129
-115 -22 -19 -60 -52 -85 -75 -26 -23 -57 -50 -70 -60 -14 -10 -36 -30 -50
-44 -15 -14 -48 -43 -75 -65 -28 -22 -70 -59 -94 -82 -47 -46 -76 -54 -87 -25
-3 9 -11 58 -16 107 -5 50 -13 115 -19 145 -5 30 -17 118 -24 195 -33 311 -38
356 -57 500 -10 83 -19 166 -18 185 1 19 -3 68 -10 109 -6 41 -9 89 -5 106 3
19 1 35 -5 39 -6 4 -11 34 -11 66 0 58 0 59 82 162 45 57 86 108 90 113 22 30
113 141 118 145 3 3 17 21 30 40 13 19 44 59 68 88 25 30 56 70 69 89 13 19
49 65 81 102 72 85 190 235 221 281 13 19 47 60 75 90 29 30 67 78 86 105 18
28 49 68 69 91 89 101 521 709 521 732 0 5 18 36 40 68 22 33 40 63 40 68 0 5
18 44 40 87 22 43 40 86 40 95 0 10 9 43 19 73 27 77 44 257 32 351 -9 83 -44
174 -98 259 -41 66 -143 173 -193 204 -19 12 -44 29 -54 39 -11 10 -28 18 -37
18 -10 0 -40 12 -69 26 -89 45 -296 54 -435 20 -112 -28 -252 -90 -340 -150
-16 -12 -37 -26 -46 -31 -67 -41 -235 -183 -338 -286 -178 -179 -355 -367
-391 -416 -16 -24 -34 -43 -38 -43 -5 0 -27 -23 -50 -51 -23 -29 -63 -76 -89
-105 -27 -29 -68 -80 -93 -113 -25 -33 -50 -60 -57 -61 -13 0 -28 80 -20 110
3 11 1 68 -4 127 -9 103 -23 607 -20 723 1 30 -4 67 -10 82 -9 22 -9 31 1 43
7 8 10 25 7 37 -3 13 -7 70 -8 128 -1 58 -5 112 -10 120 -4 9 -9 62 -10 118
-3 110 -30 266 -54 315 -8 17 -15 38 -15 48 0 10 -4 20 -9 23 -5 3 -12 17 -15
31 -23 91 -171 248 -300 318 -28 15 -60 34 -71 41 -87 55 -288 84 -422 60 -82
-14 -125 -29 -208 -72 -27 -14 -67 -34 -88 -45 -85 -44 -248 -224 -310 -342
-73 -140 -114 -241 -143 -360 -8 -33 -19 -75 -25 -92 -11 -36 -37 -183 -45
-253 -2 -25 -9 -79 -14 -120 -29 -223 -47 -567 -41 -783 3 -128 -7 -142 -67
-85 -53 49 -279 228 -289 228 -5 0 -31 19 -58 43 -52 44 -157 117 -187 129
-10 4 -18 11 -18 16 0 5 -15 15 -32 23 -18 7 -49 24 -68 39 -39 28 -156 88
-237 120 -88 35 -192 52 -298 51 -160 -2 -256 -23 -385 -85 -47 -22 -180 -114
-180 -125 0 -3 -25 -33 -55 -66 -30 -32 -55 -62 -55 -67 0 -4 -13 -27 -30 -51
-16 -25 -30 -51 -30 -58 0 -8 -8 -27 -17 -44 -54 -99 -48 -410 11 -525 10 -19
26 -57 37 -83 10 -27 43 -82 72 -124 28 -42 59 -85 67 -97 8 -11 35 -44 60
-72 25 -28 68 -78 95 -112 46 -58 271 -287 296 -302 6 -4 34 -28 62 -54 61
-55 219 -178 470 -368 100 -75 212 -160 249 -189 37 -28 125 -91 195 -140 70
-48 133 -92 139 -97 6 -5 30 -22 55 -37 24 -16 61 -42 82 -58 36 -30 37 -31
37 -101 0 -39 -4 -87 -9 -106 -5 -19 -13 -136 -17 -260 -4 -124 -9 -263 -11
-310 -2 -47 -6 -123 -8 -170 -6 -135 -14 -248 -25 -343 -6 -48 -10 -111 -9
-140 4 -273 -2 -306 -54 -278 -12 7 -40 21 -62 33 -22 11 -47 26 -55 33 -8 7
-26 16 -39 20 -13 4 -45 22 -70 40 -25 18 -57 35 -71 38 -14 4 -49 22 -78 42
-30 19 -59 35 -67 35 -7 0 -23 8 -36 18 -13 11 -91 54 -174 97 -82 43 -163 86
-180 97 -16 10 -37 20 -45 24 -8 3 -25 9 -37 14 -21 9 -63 101 -63 140 0 10
-4 22 -10 25 -5 3 -10 15 -10 27 0 24 -25 107 -50 163 -10 22 -29 76 -43 120
-30 95 -46 139 -64 182 -7 17 -13 36 -13 43 0 7 -7 24 -15 38 -8 15 -35 72
-60 127 -25 55 -50 107 -55 115 -5 8 -33 61 -62 118 -29 57 -60 111 -68 120
-8 10 -26 37 -39 62 -13 25 -42 69 -65 98 -23 30 -54 70 -69 90 -65 85 -240
252 -264 252 -6 0 -16 7 -23 14 -6 8 -28 20 -48 27 -20 7 -55 23 -77 37 -90
57 -370 85 -495 50 -64 -18 -166 -64 -175 -78 -3 -5 -21 -17 -39 -25 -46 -22
-195 -175 -226 -231 -14 -26 -31 -56 -37 -68 -7 -11 -13 -29 -13 -39 0 -10 -7
-29 -16 -42 -42 -65 -50 -289 -15 -435 13 -52 24 -107 26 -121 2 -15 13 -42
24 -60 12 -19 21 -42 21 -51 0 -10 11 -37 25 -62 14 -25 25 -52 25 -60 0 -9
15 -46 34 -84 19 -37 40 -80 48 -97 21 -49 101 -189 115 -203 19 -19 16 -52
-4 -53 -22 -2 6 -3 -213 11 -216 14 -469 15 -514 1 -17 -5 -49 -12 -71 -16
-71 -11 -184 -50 -245 -83 -185 -102 -288 -208 -387 -397 -34 -65 -54 -174
-55 -290 0 -76 17 -195 31 -223 5 -9 14 -28 20 -42 49 -114 131 -213 261 -316
42 -32 91 -67 110 -76 63 -30 124 -56 193 -82 37 -14 82 -32 100 -39 56 -25
237 -65 322 -71 22 -2 69 -8 105 -15 36 -6 89 -11 119 -11 29 0 79 -7 110 -14
77 -20 275 -28 664 -27 l328 1 52 -34 c49 -33 203 -147 292 -217 22 -17 65
-49 95 -70 30 -22 64 -48 75 -57 11 -9 38 -30 61 -47 78 -56 249 -186 289
-220 50 -42 151 -120 234 -182 91 -68 202 -165 296 -258 l81 -80 -3 -75 c-15
-359 -33 -679 -39 -700 -2 -9 -19 -24 -36 -35 -18 -10 -52 -33 -76 -51 -24
-18 -62 -42 -85 -53 -133 -62 -166 -75 -307 -116 -143 -43 -467 -36 -535 11
-11 8 -30 14 -44 14 -13 0 -49 12 -80 26 -31 15 -72 34 -91 43 -40 19 -110 70
-166 122 -38 35 -134 153 -134 165 0 20 -97 146 -140 183 -59 50 -95 62 -201
68 -71 4 -82 2 -140 -28 -35 -17 -66 -34 -69 -38 -10 -13 -122 -95 -173 -127
-68 -43 -271 -144 -288 -144 -8 0 -30 -8 -49 -18 -54 -29 -165 -62 -208 -62
-22 0 -56 -7 -76 -15 -75 -32 -354 -34 -488 -5 -50 11 -107 20 -125 20 -18 0
-50 6 -70 14 -54 19 -103 33 -141 41 -33 7 -209 80 -227 95 -5 4 -24 11 -42
14 -17 4 -37 14 -44 22 -7 9 -25 22 -41 30 -15 8 -50 35 -78 59 -28 25 -56 45
-63 45 -23 1 -206 193 -253 267 -19 28 -38 54 -43 57 -19 12 -94 131 -122 195
-16 36 -37 80 -46 96 -15 29 -22 53 -44 160 -6 27 -17 62 -25 77 -8 15 -14 40
-14 56 0 16 -4 42 -10 58 -13 39 -18 267 -7 324 4 25 12 70 17 100 13 85 46
221 65 265 9 22 30 68 46 103 16 34 29 69 29 78 0 8 10 34 22 57 32 62 30 173
-6 243 -29 58 -80 108 -135 131 -20 9 -48 22 -63 29 -14 8 -39 14 -55 14 -15
1 -39 7 -53 15 -14 8 -34 14 -45 15 -11 0 -64 18 -118 40 -53 22 -103 40 -111
40 -7 0 -19 6 -25 14 -7 8 -27 18 -44 21 -18 4 -39 14 -48 22 -9 8 -44 28 -77
46 -143 76 -363 277 -469 427 -77 109 -123 182 -123 193 0 7 -6 21 -14 32 -7
11 -28 56 -45 100 -18 44 -36 87 -41 96 -10 20 -40 136 -40 157 0 9 -7 30 -15
46 -8 15 -15 39 -15 52 0 14 -6 40 -14 59 -8 19 -18 83 -22 142 -3 59 -13 127
-20 149 -25 76 -8 502 26 659 6 28 15 71 20 97 5 27 12 53 15 59 4 6 13 39 20
74 8 34 23 81 34 104 12 22 21 51 21 64 0 39 105 235 194 365 111 160 175 238
283 343 93 92 277 239 297 239 7 0 35 17 63 38 53 39 212 122 323 168 36 14
83 35 106 45 23 11 46 19 52 19 27 0 115 65 142 105 17 24 30 48 30 52 0 5 5
14 11 20 20 20 48 116 49 164 0 26 -7 60 -15 75 -8 16 -15 37 -15 47 0 11 -8
31 -19 45 -10 15 -24 45 -31 67 -7 22 -23 58 -34 80 -24 45 -56 163 -74 270
-10 56 -13 82 -18 160 -3 50 -6 113 -6 140 0 89 22 259 37 293 8 18 15 48 15
66 0 18 11 59 25 90 14 31 25 64 25 74 0 9 6 29 14 43 7 15 21 49 30 77 10 28
37 86 62 129 24 42 44 82 44 87 0 5 10 23 23 40 12 17 31 48 41 68 58 114 311
373 470 481 91 62 311 177 339 177 10 0 35 9 57 20 22 11 50 20 64 20 13 0 43
9 67 20 24 11 60 20 79 20 20 0 40 4 45 9 16 14 236 33 400 35 132 1 155 4
195 23 117 56 173 152 196 338 11 90 28 166 44 201 11 22 20 47 20 55 0 37
104 253 144 299 8 8 21 29 29 46 34 67 268 285 357 332 169 90 223 111 350
136 182 35 431 42 570 16 102 -20 155 -33 165 -39 6 -4 30 -14 55 -21 25 -7
50 -16 55 -19 10 -6 28 -11 144 -45 58 -16 114 -10 176 19 54 25 125 115 174
220 13 28 28 59 34 70 6 11 22 40 35 65 13 25 40 72 61 105 21 33 52 83 69
110 18 28 46 66 63 85 17 19 50 62 72 94 127 187 492 478 755 602 63 30 120
54 128 54 8 0 42 11 76 24 93 35 132 46 157 46 12 0 35 7 50 15 35 17 104 30
270 50 69 9 127 17 129 20 7 7 268 -4 342 -14z m3840 -641 c0 -5 -4 -10 -10
-10 -5 0 -10 5 -10 10 0 6 5 10 10 10 6 0 10 -4 10 -10z m-4170 -3295 c25 -9
51 -21 58 -27 20 -17 71 -96 88 -136 27 -65 36 -277 40 -882 2 -327 5 -635 7
-685 3 -49 8 -162 11 -250 4 -88 12 -181 17 -207 6 -26 8 -51 5 -57 -11 -17
23 -263 46 -336 56 -178 192 -258 326 -192 44 21 140 120 234 242 26 33 60 76
77 95 50 59 194 240 231 290 19 26 63 79 96 116 34 38 97 112 139 164 84 104
158 190 219 254 21 22 69 77 107 121 113 133 320 321 426 388 106 67 246 87
327 47 54 -26 97 -82 108 -138 9 -52 -6 -158 -27 -182 -7 -8 -21 -33 -31 -55
-36 -81 -146 -243 -289 -429 -33 -43 -78 -103 -100 -134 -72 -99 -257 -336
-335 -428 -19 -22 -62 -76 -95 -119 -33 -43 -65 -83 -70 -89 -12 -13 -151
-186 -212 -266 -24 -30 -75 -95 -114 -145 -84 -107 -231 -299 -277 -364 -18
-25 -46 -62 -61 -81 -48 -61 -101 -139 -101 -150 0 -6 -4 -18 -9 -28 -42 -83
-55 -179 -42 -304 6 -57 10 -114 10 -128 -2 -24 6 -113 36 -410 8 -80 17 -185
20 -234 3 -50 9 -94 12 -99 5 -8 20 -108 29 -197 17 -163 36 -306 48 -360 7
-36 14 -87 15 -113 1 -27 7 -60 12 -75 6 -14 12 -66 14 -114 3 -51 10 -97 19
-111 7 -12 17 -46 20 -76 6 -48 21 -84 81 -201 27 -52 84 -109 134 -131 54
-24 67 -24 141 1 68 23 164 92 270 194 41 40 125 117 185 172 61 54 151 138
200 185 50 48 110 104 135 124 25 20 104 92 175 160 72 67 146 135 165 151 19
16 80 69 135 118 343 308 399 373 417 493 5 38 14 93 19 123 5 30 15 100 23
155 30 208 139 693 175 780 5 11 17 49 27 85 9 36 21 69 26 75 4 5 8 18 8 29
0 22 30 106 61 171 10 22 19 43 19 47 0 17 88 148 127 189 65 68 122 93 210
93 66 0 75 -2 126 -37 29 -20 60 -50 67 -65 7 -15 17 -37 23 -49 22 -49 -16
-439 -46 -469 -4 -4 -7 -23 -7 -42 0 -35 -14 -90 -31 -124 -5 -10 -9 -29 -9
-43 0 -13 -6 -42 -14 -62 -15 -41 -41 -148 -36 -148 2 0 -2 -11 -9 -24 -18
-33 -49 -218 -39 -233 4 -7 8 -22 8 -33 1 -33 52 -98 104 -132 48 -31 51 -32
143 -27 62 2 104 9 126 21 17 9 52 20 77 24 25 3 65 13 90 22 42 14 131 40
255 72 28 7 118 31 200 53 83 22 170 43 195 47 24 3 49 10 55 14 10 8 34 14
143 32 224 38 266 38 335 -1 67 -38 109 -83 131 -141 15 -42 15 -51 2 -103
-20 -75 -45 -114 -111 -173 -61 -55 -155 -107 -294 -162 -53 -21 -117 -48
-143 -60 -26 -11 -55 -21 -65 -21 -10 -1 -29 -7 -43 -15 -14 -8 -36 -14 -50
-15 -14 0 -35 -7 -47 -15 -12 -9 -41 -20 -65 -25 -24 -5 -83 -21 -133 -35
-106 -30 -155 -43 -210 -54 -22 -4 -51 -13 -65 -19 -14 -5 -52 -15 -85 -22
-66 -12 -127 -28 -224 -60 -36 -11 -74 -20 -85 -20 -11 0 -33 -4 -50 -10 -119
-37 -168 -51 -221 -59 -73 -12 -156 -51 -210 -99 -152 -135 -284 -262 -615
-594 -370 -372 -431 -436 -625 -653 -54 -60 -128 -142 -164 -181 -133 -142
-267 -298 -303 -350 -20 -30 -55 -76 -77 -103 -23 -27 -41 -52 -41 -56 0 -4
-9 -20 -21 -37 -23 -32 -79 -197 -79 -232 0 -12 -4 -26 -10 -32 -9 -9 -12
-375 -5 -654 2 -63 5 -208 8 -323 3 -116 11 -223 17 -243 7 -19 9 -50 6 -67
-3 -18 1 -75 8 -127 7 -52 12 -100 9 -105 -2 -6 6 -91 18 -190 11 -99 24 -218
29 -265 4 -47 15 -117 23 -156 18 -78 37 -205 42 -274 2 -25 8 -70 14 -100 7
-30 13 -66 16 -80 2 -14 11 -61 20 -105 10 -44 21 -105 25 -135 4 -30 15 -72
24 -94 9 -21 16 -57 16 -80 0 -23 4 -46 9 -52 10 -9 22 -49 66 -214 95 -352
180 -446 495 -546 25 -8 59 -21 77 -29 17 -8 39 -15 49 -15 10 0 36 -6 59 -13
22 -8 87 -29 145 -47 58 -17 128 -41 155 -51 28 -10 56 -19 62 -19 16 0 245
-98 258 -111 5 -5 16 -9 25 -9 31 0 225 -105 300 -163 116 -88 146 -118 179
-175 38 -65 39 -90 4 -145 -29 -47 -52 -66 -103 -85 -50 -20 -175 -34 -203
-23 -12 5 -44 7 -69 4 -28 -3 -48 -1 -52 6 -4 6 -18 11 -32 11 -13 0 -50 7
-82 15 -136 35 -190 47 -235 55 -26 5 -62 13 -80 19 -31 9 -82 22 -162 42 -22
5 -49 13 -60 18 -21 9 -77 24 -165 46 -30 7 -68 18 -85 24 -16 6 -64 20 -105
32 -41 12 -100 29 -130 39 -30 10 -77 23 -105 30 -27 6 -67 18 -88 26 -41 15
-212 19 -221 5 -3 -5 -26 -14 -52 -20 -59 -15 -129 -84 -137 -137 -8 -49 18
-98 155 -300 62 -92 72 -148 34 -204 -29 -44 -56 -55 -131 -53 -63 1 -114 12
-140 29 -11 8 -27 14 -37 14 -10 0 -53 18 -95 40 -43 22 -82 40 -86 40 -5 0
-35 16 -67 36 -32 19 -71 43 -88 52 -17 9 -69 44 -117 77 -48 33 -95 65 -104
70 -10 6 -42 26 -72 46 -157 105 -196 129 -205 129 -5 0 -25 8 -44 19 -19 10
-51 22 -70 26 -19 4 -47 14 -62 21 -16 8 -61 16 -100 18 -116 6 -193 -19 -386
-124 -16 -9 -51 -32 -78 -51 -27 -20 -69 -48 -94 -63 -25 -15 -74 -49 -110
-76 -69 -52 -281 -198 -315 -216 -153 -83 -218 -110 -286 -118 -38 -4 -52 -1
-89 24 -57 38 -69 62 -70 140 0 58 5 76 50 166 93 191 99 232 45 293 -76 84
-234 98 -455 41 -19 -5 -62 -16 -95 -24 -33 -8 -85 -22 -115 -31 -30 -9 -75
-21 -100 -25 -25 -5 -72 -18 -105 -29 -33 -12 -78 -24 -100 -28 -22 -3 -57
-14 -77 -25 -21 -10 -64 -22 -95 -28 -32 -5 -87 -18 -123 -30 -141 -46 -156
-50 -178 -50 -12 0 -30 -4 -40 -9 -18 -9 -93 -26 -212 -46 -41 -7 -102 -19
-135 -26 -33 -7 -100 -11 -150 -10 -163 5 -226 62 -189 171 9 25 19 47 22 50
4 3 29 31 56 63 53 64 186 178 256 220 25 15 52 32 60 37 52 34 137 78 215
112 50 22 104 46 120 54 17 9 50 22 75 31 25 8 59 21 75 28 17 8 62 25 100 38
39 13 84 29 100 35 17 6 57 19 90 28 33 9 64 20 70 25 5 5 18 9 28 9 11 0 47
14 81 32 33 17 74 38 90 46 58 30 133 139 166 242 8 25 20 56 27 70 7 14 13
31 13 37 0 7 9 43 21 80 46 153 80 293 90 370 4 34 14 76 22 95 8 19 18 65 22
103 4 38 12 80 18 95 5 14 16 61 23 105 7 44 17 109 23 145 5 36 15 103 21
150 6 47 15 105 20 130 25 123 43 258 51 380 6 74 17 158 25 185 8 28 14 81
13 120 -1 39 1 95 4 125 2 30 8 136 11 235 4 99 10 227 12 285 3 58 5 220 5
360 1 329 -14 449 -67 530 -45 68 -190 210 -349 339 -66 54 -134 111 -151 127
-30 29 -133 110 -163 129 -9 6 -35 25 -58 43 -23 17 -45 32 -49 32 -5 0 -27
18 -50 41 -23 23 -51 46 -61 53 -31 18 -101 68 -139 100 -20 16 -48 36 -63 45
-60 34 -95 58 -159 107 -37 28 -116 84 -176 125 -60 41 -146 100 -192 131 -46
32 -112 70 -146 85 l-63 28 -295 2 c-370 2 -641 9 -660 16 -8 3 -64 8 -125 11
-136 7 -299 23 -345 36 -19 5 -69 17 -110 26 -122 28 -275 83 -290 104 -3 4
-20 15 -37 24 -18 9 -50 43 -73 77 -33 50 -40 69 -40 108 0 62 18 105 69 163
50 57 86 80 171 108 73 25 98 26 425 10 419 -20 461 -23 483 -32 34 -12 245
10 284 31 80 41 138 105 138 150 0 11 5 23 10 26 16 10 5 151 -14 180 -9 13
-16 35 -16 49 0 14 -16 52 -35 85 -19 32 -35 65 -35 73 0 7 -7 24 -16 37 -9
13 -30 51 -47 85 -87 178 -130 262 -138 271 -5 5 -9 15 -9 23 0 8 -9 25 -20
39 -11 14 -20 33 -20 42 0 10 -9 36 -20 58 -11 23 -31 76 -45 119 -14 42 -29
82 -34 88 -17 21 -23 113 -10 175 14 75 54 137 111 176 39 26 51 29 133 29 90
1 90 1 151 -41 65 -44 183 -169 230 -243 56 -88 209 -390 238 -469 8 -20 30
-76 49 -126 40 -101 141 -404 161 -480 7 -27 20 -64 29 -82 9 -18 17 -42 17
-55 0 -35 60 -173 91 -211 24 -29 149 -118 256 -183 18 -10 87 -52 153 -91 66
-40 123 -73 126 -73 3 0 32 -18 64 -40 32 -22 62 -40 66 -40 4 0 30 -15 58
-32 60 -39 80 -51 126 -74 19 -10 60 -32 90 -50 30 -17 80 -45 110 -61 86 -47
188 -106 276 -160 77 -47 96 -56 184 -88 19 -6 51 -18 70 -25 88 -32 152 -21
229 41 42 33 101 137 101 177 0 13 5 32 10 42 12 23 20 105 25 250 2 58 8 197
13 310 5 113 10 237 10 275 0 39 3 133 6 210 11 275 15 372 20 525 4 85 9 187
13 225 9 109 5 463 -7 485 -5 10 -10 37 -10 60 0 68 -89 222 -143 248 -15 7
-27 17 -27 22 0 4 -24 24 -52 43 -29 19 -64 47 -77 61 -14 14 -32 26 -42 26
-9 0 -34 16 -55 35 -22 19 -53 41 -71 50 -34 17 -142 95 -187 136 -16 15 -47
37 -69 50 -22 13 -56 38 -76 54 -20 17 -46 37 -58 45 -39 27 -247 187 -278
214 -16 14 -48 39 -70 54 -36 24 -117 91 -258 215 -68 59 -243 235 -297 298
-25 29 -64 74 -87 100 -24 25 -43 55 -43 66 0 11 -7 26 -16 33 -21 18 -40 65
-48 122 -10 64 27 143 93 199 59 51 109 70 181 67 50 -1 152 -28 190 -49 78
-44 109 -62 131 -77 65 -43 114 -77 119 -82 10 -11 185 -155 237 -195 375
-289 409 -314 583 -432 139 -95 189 -120 258 -129 41 -5 62 -2 95 12 129 55
176 210 160 530 -20 389 15 1045 75 1419 5 28 14 60 20 72 7 12 12 34 12 48 0
15 6 41 14 58 7 18 25 61 40 97 47 117 139 202 236 219 65 11 89 9 150 -14z
m6305 -8483 c0 -18 -20 -15 -23 4 -3 10 1 15 10 12 7 -3 13 -10 13 -16z m-359
-73 c10 -17 -23 -46 -37 -32 -7 7 -9 19 -6 27 7 18 33 21 43 5z m-1666 -29 c0
-5 -4 -10 -10 -10 -5 0 -10 5 -10 10 0 6 5 10 10 10 6 0 10 -4 10 -10z m-8360
-385 c0 -8 -4 -15 -10 -15 -5 0 -10 7 -10 15 0 8 5 15 10 15 6 0 10 -7 10 -15z
m-1120 -75 c0 -5 -9 -10 -20 -10 -11 0 -20 5 -20 10 0 6 9 10 20 10 11 0 20
-4 20 -10z m135 -9 c7 -12 -12 -24 -25 -16 -11 7 -4 25 10 25 5 0 11 -4 15 -9z
m275 -10 c0 -14 -18 -23 -31 -15 -8 4 -7 9 2 15 18 11 29 11 29 0z m2278 -160
c3 -8 -1 -12 -9 -9 -7 2 -15 10 -17 17 -3 8 1 12 9 9 7 -2 15 -10 17 -17z
m6062 -36 c0 -8 -7 -15 -15 -15 -8 0 -15 7 -15 15 0 8 7 15 15 15 8 0 15 -7
15 -15z m828 -2804 c3 -8 -1 -12 -9 -9 -7 2 -15 10 -17 17 -3 8 1 12 9 9 7 -2
15 -10 17 -17z"/>
<path d="M10312 17559 c-13 -5 -41 -11 -62 -14 -39 -5 -100 -34 -134 -64 -10
-9 -29 -38 -43 -66 -26 -54 -25 -93 4 -148 33 -64 129 -127 193 -127 15 0 40
-4 56 -9 16 -5 56 -15 89 -21 133 -29 329 -147 430 -262 58 -64 124 -101 188
-102 45 0 59 5 98 34 62 46 90 90 100 152 15 93 -30 192 -142 310 -62 66 -171
154 -201 164 -12 3 -43 19 -69 35 -90 53 -213 91 -354 109 -38 5 -83 11 -100
14 -16 3 -41 0 -53 -5z"/>
<path d="M12250 16529 c-30 -10 -67 -19 -82 -19 -15 0 -61 -16 -104 -35 -42
-19 -82 -35 -88 -35 -11 0 -98 -57 -171 -112 -67 -51 -155 -136 -189 -183 -11
-14 -29 -37 -40 -50 -12 -14 -30 -41 -41 -62 -11 -21 -27 -49 -37 -62 -10 -13
-18 -31 -18 -40 0 -9 -7 -29 -15 -45 -36 -69 -2 -202 70 -264 47 -42 96 -56
173 -49 54 5 72 12 109 41 25 19 59 55 76 79 60 83 182 207 248 252 107 72
251 102 343 71 53 -18 126 -62 126 -75 0 -5 6 -16 13 -23 6 -7 17 -24 23 -38
45 -98 47 -116 45 -290 -1 -87 21 -144 83 -208 52 -54 87 -78 138 -92 32 -10
152 10 218 35 76 29 170 44 270 45 87 0 99 -2 135 -26 66 -44 96 -76 124 -134
22 -47 26 -67 24 -135 -4 -162 -2 -180 17 -221 10 -23 31 -51 46 -63 36 -29
111 -61 140 -61 28 0 126 25 152 39 36 19 93 93 125 159 29 62 31 75 31 182 1
128 -6 182 -29 226 -8 16 -15 35 -15 42 0 32 -88 179 -145 240 -40 45 -205
172 -222 172 -8 0 -24 6 -36 14 -31 21 -132 52 -197 62 -79 12 -245 8 -298 -7
-41 -11 -46 -11 -58 6 -8 10 -14 35 -14 54 -1 20 -7 47 -15 61 -8 14 -14 36
-15 48 0 43 -79 176 -150 256 -73 81 -113 115 -157 137 -24 11 -45 24 -48 29
-5 8 -85 39 -193 74 -81 26 -280 29 -352 5z"/>
<path d="M8358 15768 c-26 -7 -51 -25 -80 -60 -38 -45 -43 -57 -46 -112 -4
-62 10 -106 66 -206 11 -19 29 -53 40 -75 47 -98 88 -160 140 -214 49 -51 64
-60 104 -66 116 -17 196 32 235 145 17 48 17 56 -12 146 -28 85 -51 137 -90
199 -13 22 -33 56 -44 76 -28 51 -120 149 -140 149 -9 0 -25 7 -35 15 -22 17
-82 18 -138 3z"/>
<path d="M7601 15354 c-30 -13 -60 -33 -68 -44 -7 -10 -20 -25 -27 -33 -7 -7
-17 -40 -21 -73 -11 -101 24 -150 255 -358 195 -176 262 -216 360 -216 26 0
64 7 83 15 34 14 87 61 87 77 0 4 8 17 18 28 27 32 30 70 10 125 -26 67 -70
124 -175 226 -186 183 -304 259 -418 272 -40 5 -61 1 -104 -19z"/>
<path d="M5315 14494 c-16 -7 -46 -13 -66 -14 -33 0 -171 -43 -194 -60 -5 -4
-26 -12 -45 -19 -19 -6 -47 -21 -63 -33 -15 -13 -51 -39 -79 -58 -78 -52 -258
-237 -258 -265 0 -3 -10 -21 -23 -38 -46 -62 -123 -246 -133 -317 -23 -154
-23 -326 0 -392 9 -25 18 -59 21 -75 8 -52 31 -123 43 -135 7 -7 12 -21 12
-31 0 -28 94 -165 148 -216 26 -24 67 -54 92 -67 75 -39 197 -33 245 12 14 13
29 24 34 24 15 0 59 56 78 100 24 55 18 126 -15 180 -58 94 -115 220 -124 275
-23 136 -8 244 51 364 22 46 168 194 211 214 139 65 246 72 395 25 175 -54
218 -51 297 21 41 37 57 61 70 102 32 100 20 161 -48 246 -39 47 -153 117
-210 127 -21 5 -43 11 -49 16 -28 23 -345 35 -390 14z"/>
<path d="M15040 13660 c-8 -5 -23 -10 -33 -10 -36 0 -175 -123 -260 -230 -29
-36 -60 -74 -70 -85 -17 -18 -54 -80 -104 -173 -61 -114 7 -242 143 -268 65
-12 127 32 301 213 158 165 214 239 246 323 29 78 21 124 -33 181 -43 46 -151
74 -190 49z"/>
<path d="M15395 13173 c-22 -3 -44 -9 -49 -14 -6 -5 -19 -9 -30 -9 -33 -1
-208 -110 -280 -174 -36 -33 -84 -83 -106 -112 -51 -68 -55 -125 -11 -194 53
-85 132 -117 231 -95 40 8 170 73 245 120 28 18 68 42 90 55 22 13 42 27 45
30 3 3 15 13 27 21 47 32 81 88 92 151 9 51 8 66 -4 85 -8 12 -15 28 -15 36 0
19 -58 70 -103 90 -37 17 -51 18 -132 10z"/>
<path d="M17060 12395 c-78 -17 -134 -54 -154 -104 -22 -57 -21 -122 4 -154
11 -14 20 -29 20 -34 0 -5 21 -34 48 -64 92 -105 133 -171 169 -274 46 -132
39 -313 -16 -440 -10 -22 -25 -57 -34 -78 -9 -21 -17 -63 -17 -93 0 -73 42
-141 113 -185 45 -28 54 -30 117 -25 114 8 196 73 269 211 17 33 31 70 31 82
0 12 9 42 20 67 10 25 24 83 30 128 25 203 0 382 -76 545 -19 40 -34 75 -34
78 0 2 -26 42 -57 88 -70 102 -149 174 -240 220 -82 41 -120 47 -193 32z"/>
<path d="M3949 11766 c-3 -4 -35 -10 -70 -15 -142 -20 -285 -102 -441 -253
-65 -64 -168 -199 -168 -221 0 -9 -5 -19 -11 -23 -6 -3 -20 -27 -31 -53 -10
-25 -25 -59 -32 -76 -17 -37 -33 -96 -43 -155 -10 -62 -6 -287 6 -330 6 -19
20 -66 31 -105 47 -158 181 -321 310 -377 94 -41 227 -6 296 79 69 84 75 173
18 267 -21 34 -50 76 -66 94 -15 18 -31 44 -34 57 -3 14 -10 25 -14 25 -12 0
-27 56 -35 127 -8 84 16 179 67 265 48 81 163 193 238 232 30 16 81 42 112 58
72 37 113 97 123 180 4 36 2 58 -4 63 -6 3 -11 17 -11 30 0 33 -91 111 -139
119 -20 3 -50 8 -66 11 -17 4 -33 4 -36 1z"/>
<path d="M16055 8740 c-78 -14 -126 -45 -167 -105 -47 -70 -49 -112 -12 -222
67 -197 17 -362 -151 -499 -111 -90 -205 -121 -330 -106 -88 11 -116 19 -222
68 -49 23 -95 36 -141 40 -61 6 -74 4 -126 -21 -102 -48 -161 -166 -135 -270
16 -68 46 -112 116 -173 89 -78 224 -140 366 -167 180 -34 451 -8 582 55 23
11 45 20 49 20 4 0 54 32 112 71 157 107 284 255 354 414 80 181 85 204 85
395 0 151 -2 169 -22 212 -13 26 -23 51 -23 57 0 22 -82 131 -127 168 -42 35
-72 49 -148 66 -11 3 -38 2 -60 -3z"/>
<path d="M4466 7681 c-4 -6 -21 -11 -39 -11 -42 0 -127 -88 -146 -151 -7 -24
-17 -54 -21 -65 -14 -35 0 -196 19 -232 6 -11 11 -29 11 -40 0 -11 9 -31 20
-45 11 -14 20 -34 20 -44 0 -31 94 -164 164 -231 67 -65 221 -158 280 -169 17
-3 36 -9 41 -14 23 -17 136 -32 260 -33 113 -1 140 2 205 23 108 36 157 68
207 138 56 78 12 215 -88 278 -37 24 -45 25 -196 24 -87 -1 -171 2 -188 6 -60
14 -114 47 -174 106 -75 73 -110 145 -118 244 -9 102 -37 155 -104 198 -31 19
-144 33 -153 18z"/>
<path d="M10055 8313 c-45 -7 -92 -48 -115 -100 -19 -44 -20 -60 -15 -233 3
-102 8 -198 11 -215 6 -30 7 -61 20 -315 10 -215 11 -519 1 -593 -6 -45 -5
-117 3 -205 9 -113 15 -144 35 -177 51 -88 128 -130 205 -114 47 10 104 74
119 136 7 27 18 66 24 88 14 46 15 603 2 775 -4 58 -9 132 -11 165 -4 64 -18
211 -35 360 -23 208 -36 282 -56 321 -23 43 -85 104 -106 104 -7 0 -21 2 -32
4 -11 2 -33 1 -50 -1z"/>
<path d="M11010 6798 c-76 -22 -112 -84 -130 -228 -6 -52 -16 -126 -21 -165
-10 -73 -13 -526 -5 -655 9 -128 25 -302 35 -370 27 -177 34 -218 46 -250 7
-19 18 -62 25 -95 7 -33 18 -76 26 -95 8 -19 16 -44 18 -55 7 -34 71 -178 99
-222 39 -61 94 -93 160 -93 49 0 56 3 94 43 57 59 66 93 49 197 -8 47 -24 121
-35 165 -38 141 -43 159 -47 205 -3 25 -9 54 -14 65 -5 11 -11 43 -15 70 -3
28 -9 86 -15 130 -9 82 -29 274 -35 355 -8 96 -17 325 -20 550 -2 129 -8 258
-14 285 -5 28 -10 55 -10 62 -1 7 -15 29 -33 49 -46 52 -99 70 -158 52z"/>
<path d="M9520 5813 c-103 -44 -111 -76 -115 -478 -4 -284 -9 -422 -22 -520
-2 -16 -7 -64 -11 -105 -4 -41 -10 -80 -14 -85 -3 -6 -9 -33 -12 -60 -7 -61
-25 -167 -36 -215 -5 -19 -14 -62 -20 -95 -6 -33 -16 -73 -22 -90 -5 -16 -14
-50 -18 -75 -5 -25 -16 -70 -25 -100 -9 -30 -20 -74 -25 -98 -5 -23 -14 -51
-20 -61 -5 -11 -10 -33 -10 -50 0 -16 -4 -33 -10 -36 -18 -11 -11 -112 10
-158 27 -58 90 -97 157 -97 45 0 54 4 94 43 24 23 54 56 65 72 23 33 73 165
99 260 9 33 23 76 30 95 7 19 19 67 25 105 7 39 16 79 21 90 4 11 12 61 19
110 6 50 16 104 22 120 11 33 24 108 39 230 33 282 39 592 16 835 -23 232 -35
276 -83 321 -69 62 -92 69 -154 42z"/>
<path d="M10419 4630 c-59 -48 -72 -87 -70 -214 2 -161 47 -443 81 -507 5 -9
12 -34 16 -55 3 -22 10 -43 14 -49 4 -5 16 -37 26 -70 27 -91 93 -209 148
-265 61 -63 75 -71 129 -72 53 -1 98 22 129 64 32 46 33 168 1 231 -38 74 -63
133 -63 148 0 8 -4 19 -9 25 -4 5 -14 32 -21 59 -7 28 -16 55 -20 60 -8 12
-29 83 -42 140 -35 155 -46 211 -59 295 -6 41 -17 89 -24 105 -7 17 -16 40
-19 52 -4 12 -23 36 -42 52 -29 26 -43 31 -87 31 -43 0 -59 -5 -88 -30z"/>
</g>
</svg>
